# xmcd
#
# Track frame offsets:
#	182
#	19112
#	33852
#	47320
#	61797
#	74222
#	85227
#	96200
#	108830
#	125135
#	144542
#	164252
#
# Disc length: 2250 seconds
#
# Revision: 4
# Processed by: cddbd v1.5.2PL0 Copyright (c) Steve Scherf et al.
# Submitted via: EZCDAudioConverter 6.0.5.1
#
DISCID=9e08c80c
DTITLE=Various Artist - Big Country For One And All
DYEAR=1995
DGENRE=Country
TTITLE0=Charlie Daniels - Playin In The Same Band
TTITLE1=Chet Atkins - Im My Own Grandpaw
TTITLE2=Tracy Byrd - Get In Line
TTITLE3=Little Texas - Big Country
TTITLE4=Faith Hill - Before You Grow
TTITLE5=Brenda Lee - Grandmas Feather Bed
TTITLE6=Michael Martin Murphey - A Hundred Years From Now
TTITLE7=Randy Travis - The Nature Of Things
TTITLE8=Cleve Francis - Family Is
TTITLE9=Bill Miller - Anishinabe
TTITLE10=Crystal Gayle - Angel Kisses
TTITLE11=Little Texas - Big Country (reprise)
EXTD=
EXTT0=
EXTT1=
EXTT2=
EXTT3=
EXTT4=
EXTT5=
EXTT6=
EXTT7=
EXTT8=
EXTT9=
EXTT10=
EXTT11=
PLAYORDER=
